PathFileType   4   (X/Y/Z)
DataRate  CameraRate  NumFrames  NumMarkers  Units  OrigDataRate  OrigDataStartFrame  OrigNumFrames  
  120.0      120.0        7         39         mm      120.0          31        240
Frame#      Time	midhip		hip_r		hip_l		knee_r		knee_l		ankle_r		ankle_l		midasis		asis_r		asis_l		psis_r		psis_l		epicondLat_r		epicondLat_l		epicondMed_r		epicondMed_l		malleolusLat_r		malleolusLat_l		malleolusMedv_r		malleolusMedv_l		heel_r		heel_l		sternalnotch		xyphoidprocess		neck		subclavicle_r		subclavicle_l		toe_r		toe_l		thighwand_r		thighwand_l		upperleg1_r		upperleg1_l		upperleg2_r		upperleg2_l		shankwand_r		shankwand_l		lowerleg1_r		lowerleg1_l		
              X1          Y1          Z1          X2          Y2          Z2          X3          Y3          Z3          X4          Y4          Z4          X5          Y5          Z5          X6          Y6          Z6          X7          Y7          Z7          X8          Y8          Z8          X9          Y9          Z9          X10          Y10          Z10          X11          Y11          Z11          X12          Y12          Z12          X13          Y13          Z13          X14          Y14          Z14          X15          Y15          Z15          X16          Y16          Z16          X17          Y17          Z17          X18          Y18          Z18          X19          Y19          Z19          X20          Y20          Z20          X21          Y21          Z21          X22          Y22          Z22          X23          Y23          Z23          X24          Y24          Z24          X25          Y25          Z25          X26          Y26          Z26          X27          Y27          Z27          X28          Y28          Z28          X29          Y29          Z29          X30          Y30          Z30          X31          Y31          Z31          X32          Y32          Z32          X33          Y33          Z33          X34          Y34          Z34          X35          Y35          Z35          X36          Y36          Z36          X37          Y37          Z37          X38          Y38          Z38          X39          Y39          Z39          

	31	0.25833	764.534	762.814	-251.921	771.457	761.008	-182.248	757.611	764.620	-321.593	759.839	424.436	-165.914	743.397	418.326	-324.520	719.012	65.102	-157.794	715.246	66.001	-329.402	835.652	845.549	-256.843	846.574	842.700	-146.929	824.731	848.397	-366.757	659.075	869.997	-206.360	652.860	869.241	-260.119	760.765	427.142	-109.487	739.218	418.969	-380.360	743.729	419.051	-223.991	754.624	420.690	-268.102	712.939	66.627	-120.821	703.273	67.435	-363.852	719.639	60.881	-191.303	717.005	66.228	-295.934	671.994	52.658	-149.032	670.387	47.161	-308.626	807.627	1195.395	-261.809	817.735	1093.876	-267.518	700.727	1262.961	-241.292	817.017	1194.633	-205.207	804.683	1196.728	-313.035	806.084	48.209	-144.961	804.210	44.664	-350.925	894.360	554.584	-154.143	864.497	571.038	-397.186	846.822	598.868	-119.929	849.842	613.148	-327.281	830.820	544.010	-118.795	837.527	555.491	-322.923	847.393	180.833	-136.255	695.698	173.808	-450.065	770.327	166.722	-151.065	708.151	162.223	-372.442
	32	0.26667	764.489	762.811	-251.898	771.418	760.997	-182.226	757.560	764.625	-321.570	759.804	424.443	-165.903	743.289	418.330	-324.560	719.166	65.056	-157.781	715.255	66.022	-329.428	835.595	845.557	-256.816	846.523	842.696	-146.938	824.667	848.417	-366.694	658.980	869.951	-206.312	652.774	869.255	-260.110	760.715	427.149	-109.475	739.137	418.983	-380.402	743.015	418.703	-222.892	754.364	420.992	-267.811	713.084	66.579	-120.809	703.297	67.450	-363.884	719.699	60.895	-191.308	716.972	66.206	-295.955	674.369	51.370	-148.960	670.235	47.190	-308.506	807.437	1195.393	-261.750	817.608	1093.986	-267.391	700.587	1262.924	-241.370	816.803	1194.732	-205.049	804.511	1196.839	-312.909	806.083	48.245	-144.947	804.190	44.677	-350.873	894.349	554.546	-154.113	864.407	571.074	-397.134	846.718	599.003	-119.859	849.869	613.057	-327.197	830.537	543.751	-118.455	837.535	555.755	-322.792	847.357	180.836	-136.262	695.659	173.834	-450.043	770.238	166.839	-151.102	708.069	162.261	-372.390
	33	0.27500	764.455	762.803	-251.869	771.381	760.985	-182.198	757.528	764.622	-321.541	759.764	424.461	-165.894	743.146	418.312	-324.585	719.193	65.048	-157.778	715.260	66.040	-329.458	835.551	845.558	-256.777	846.471	842.691	-146.948	824.632	848.425	-366.607	658.867	869.909	-206.263	652.677	869.269	-260.091	760.654	427.164	-109.466	739.028	418.974	-380.429	742.307	418.876	-222.732	754.495	421.081	-267.244	713.097	66.571	-120.808	703.321	67.462	-363.921	719.600	61.051	-191.336	716.959	66.118	-295.983	674.318	51.183	-148.804	670.195	47.236	-308.459	807.236	1195.380	-261.706	817.213	1093.926	-267.192	700.420	1263.029	-241.428	816.465	1194.751	-205.023	804.305	1196.738	-312.806	806.081	48.267	-144.911	804.187	44.685	-350.831	894.295	554.511	-154.077	864.311	571.099	-397.061	846.710	599.006	-119.862	849.887	612.960	-327.229	830.198	543.586	-118.377	837.582	555.769	-322.680	847.323	180.830	-136.247	695.617	173.867	-450.025	770.213	166.933	-151.005	708.006	162.213	-372.311
	34	0.28333	764.410	762.796	-251.860	771.326	760.974	-182.187	757.495	764.617	-321.532	759.721	424.486	-165.897	742.942	418.263	-324.616	719.068	65.077	-157.776	715.241	66.048	-329.483	835.502	845.555	-256.752	846.398	842.686	-146.974	824.606	848.425	-366.530	658.725	869.882	-206.237	652.553	869.283	-260.079	760.589	427.188	-109.468	738.879	418.931	-380.464	742.067	419.191	-222.932	754.001	421.184	-267.089	712.958	66.604	-120.809	703.333	67.461	-363.957	719.349	61.222	-191.349	717.030	66.123	-296.032	671.970	52.314	-148.851	670.249	47.173	-308.376	807.030	1195.358	-261.679	816.747	1093.726	-266.890	700.236	1263.168	-241.365	816.174	1194.685	-204.983	804.078	1196.466	-312.680	806.053	48.264	-144.888	804.201	44.684	-350.814	894.210	554.482	-154.041	864.225	571.131	-396.983	846.833	598.829	-119.833	849.863	612.883	-327.220	830.243	543.715	-118.409	837.369	555.550	-322.634	847.293	180.826	-136.218	695.576	173.897	-450.016	770.192	166.873	-150.797	708.025	162.236	-372.347
	35	0.29167	764.349	762.796	-251.897	771.242	760.965	-182.223	757.456	764.627	-321.572	759.674	424.507	-165.908	742.719	418.210	-324.654	718.870	65.129	-157.781	715.205	66.041	-329.499	835.433	845.565	-256.755	846.289	842.681	-147.026	824.577	848.449	-366.484	658.560	869.861	-206.229	652.406	869.295	-260.077	760.524	427.214	-109.479	738.720	418.877	-380.507	740.995	419.732	-222.793	753.550	421.271	-267.247	712.747	66.660	-120.816	703.334	67.443	-363.986	719.132	61.201	-191.333	717.146	66.175	-296.089	670.823	53.151	-149.152	670.346	47.068	-308.342	806.827	1195.335	-261.669	816.492	1093.647	-266.817	700.127	1263.214	-241.309	816.031	1194.653	-204.978	803.889	1196.363	-312.691	806.017	48.246	-144.903	804.226	44.680	-350.810	894.106	554.454	-154.016	864.150	571.199	-396.919	846.957	598.751	-119.710	849.820	612.922	-327.224	830.013	543.604	-118.301	837.170	555.418	-322.669	847.262	180.829	-136.180	695.542	173.914	-450.024	770.006	166.752	-150.752	708.105	162.336	-372.423
	36	0.30000	764.271	762.806	-251.982	771.132	760.954	-182.305	757.410	764.657	-321.660	759.618	424.509	-165.918	742.592	418.215	-324.673	718.806	65.152	-157.818	715.187	66.018	-329.517	835.340	845.590	-256.781	846.141	842.676	-147.098	824.540	848.503	-366.464	658.382	869.822	-206.221	652.249	869.312	-260.081	760.457	427.229	-109.489	738.622	418.870	-380.528	740.126	420.190	-222.868	753.540	421.252	-267.592	712.676	66.682	-120.854	703.334	67.415	-364.010	719.186	61.064	-191.344	717.166	66.212	-296.120	670.846	53.194	-149.258	670.356	46.959	-308.361	806.641	1195.312	-261.673	816.280	1093.678	-267.132	700.063	1263.218	-241.212	815.802	1194.577	-205.091	803.780	1196.480	-312.871	806.003	48.226	-144.934	804.250	44.678	-350.812	893.984	554.435	-154.008	864.073	571.287	-396.879	846.893	598.874	-119.648	849.683	613.038	-327.318	829.586	543.419	-118.266	837.094	555.528	-322.813	847.238	180.832	-136.156	695.516	173.918	-450.049	769.916	166.715	-150.884	708.096	162.385	-372.489
	37	0.30833	764.180	762.813	-252.083	771.008	760.938	-182.403	757.352	764.688	-321.763	759.545	424.484	-165.919	742.508	418.227	-324.684	718.976	65.116	-157.889	715.180	65.986	-329.535	835.233	845.615	-256.817	845.978	842.664	-147.173	824.488	848.566	-366.461	658.214	869.752	-206.215	652.087	869.339	-260.082	760.384	427.220	-109.491	738.546	418.868	-380.540	739.818	420.513	-223.257	753.674	421.470	-267.208	712.845	66.634	-120.924	703.332	67.380	-364.031	719.408	60.970	-191.404	716.980	66.232	-296.104	670.848	53.015	-149.178	670.238	46.981	-308.498	806.476	1195.293	-261.682	816.106	1093.747	-267.370	699.811	1263.232	-241.108	815.497	1194.524	-205.141	803.676	1196.636	-312.921	805.998	48.202	-144.953	804.265	44.685	-350.827	893.867	554.431	-154.015	864.003	571.359	-396.870	846.714	599.030	-119.607	849.542	613.133	-327.439	829.262	543.322	-118.338	837.084	555.800	-322.778	847.216	180.832	-136.163	695.495	173.909	-450.087	769.946	166.726	-150.991	707.887	162.411	-372.496
